<svg width="173" height="34" viewBox="0 0 173 34" fill="none" xmlns="http://www.w3.org/2000/svg">
<path d="M14.246 26.116C13.7247 26.5013 13.0787 26.796 12.308 27C11.56 27.1813 10.7667 27.272 9.928 27.272C7.752 27.272 6.06333 26.7167 4.862 25.606C3.68333 24.4953 3.094 22.8633 3.094 20.71V13.196H0.272V9.116H3.094V4.662H8.398V9.116H12.954V13.196H8.398V20.642C8.398 21.4127 8.59067 22.0133 8.976 22.444C9.384 22.852 9.95067 23.056 10.676 23.056C11.5147 23.056 12.2287 22.8293 12.818 22.376L14.246 26.116ZM24.6829 27.272C22.7563 27.272 21.0223 26.8753 19.4809 26.082C17.9623 25.266 16.7723 24.144 15.9109 22.716C15.0496 21.288 14.6189 19.6673 14.6189 17.854C14.6189 16.0407 15.0496 14.42 15.9109 12.992C16.7723 11.564 17.9623 10.4533 19.4809 9.66C21.0223 8.844 22.7563 8.436 24.6829 8.436C26.6096 8.436 28.3323 8.844 29.8509 9.66C31.3696 10.4533 32.5596 11.564 33.4209 12.992C34.2823 14.42 34.7129 16.0407 34.7129 17.854C34.7129 19.6673 34.2823 21.288 33.4209 22.716C32.5596 24.144 31.3696 25.266 29.8509 26.082C28.3323 26.8753 26.6096 27.272 24.6829 27.272ZM24.6829 22.92C26.0429 22.92 27.1536 22.4667 28.0149 21.56C28.8989 20.6307 29.3409 19.3953 29.3409 17.854C29.3409 16.3127 28.8989 15.0887 28.0149 14.182C27.1536 13.2527 26.0429 12.788 24.6829 12.788C23.3229 12.788 22.2009 13.2527 21.3169 14.182C20.4329 15.0887 19.9909 16.3127 19.9909 17.854C19.9909 19.3953 20.4329 20.6307 21.3169 21.56C22.2009 22.4667 23.3229 22.92 24.6829 22.92ZM56.0062 8.708V27H50.9742V24.824C50.2716 25.6173 49.4329 26.2293 48.4582 26.66C47.4836 27.068 46.4296 27.272 45.2962 27.272C42.8936 27.272 40.9896 26.5807 39.5842 25.198C38.1789 23.8153 37.4762 21.764 37.4762 19.044V8.708H42.7802V18.262C42.7802 21.2087 44.0156 22.682 46.4862 22.682C47.7556 22.682 48.7756 22.274 49.5462 21.458C50.3169 20.6193 50.7022 19.384 50.7022 17.752V8.708H56.0062ZM65.306 11.122C65.9407 10.238 66.7907 9.56933 67.856 9.116C68.944 8.66267 70.1907 8.436 71.596 8.436V13.332C71.0067 13.2867 70.61 13.264 70.406 13.264C68.8874 13.264 67.6974 13.6947 66.836 14.556C65.9747 15.3947 65.544 16.664 65.544 18.364V27H60.24V8.708H65.306V11.122ZM85.1878 8.436C87.4545 8.436 89.2791 9.116 90.6618 10.476C92.0671 11.836 92.7698 13.8533 92.7698 16.528V27H87.4658V17.344C87.4658 15.8933 87.1485 14.8167 86.5138 14.114C85.8791 13.3887 84.9611 13.026 83.7598 13.026C82.4225 13.026 81.3571 13.4453 80.5638 14.284C79.7705 15.1 79.3738 16.324 79.3738 17.956V27H74.0698V8.708H79.1358V10.85C79.8385 10.0793 80.7111 9.49 81.7538 9.082C82.7965 8.65133 83.9411 8.436 85.1878 8.436ZM115.015 17.922C115.015 17.99 114.981 18.466 114.913 19.35H101.075C101.324 20.4833 101.913 21.3787 102.843 22.036C103.772 22.6933 104.928 23.022 106.311 23.022C107.263 23.022 108.101 22.886 108.827 22.614C109.575 22.3193 110.266 21.866 110.901 21.254L113.723 24.314C112 26.286 109.484 27.272 106.175 27.272C104.112 27.272 102.287 26.8753 100.701 26.082C99.1142 25.266 97.8902 24.144 97.0288 22.716C96.1675 21.288 95.7368 19.6673 95.7368 17.854C95.7368 16.0633 96.1562 14.454 96.9948 13.026C97.8562 11.5753 99.0235 10.4533 100.497 9.66C101.993 8.844 103.659 8.436 105.495 8.436C107.285 8.436 108.906 8.82133 110.357 9.592C111.807 10.3627 112.941 11.4733 113.757 12.924C114.595 14.352 115.015 16.018 115.015 17.922ZM105.529 12.448C104.327 12.448 103.319 12.788 102.503 13.468C101.687 14.148 101.188 15.0773 101.007 16.256H110.017C109.835 15.1 109.337 14.182 108.521 13.502C107.705 12.7993 106.707 12.448 105.529 12.448ZM135.69 8.708L127.428 28.122C126.589 30.23 125.547 31.7147 124.3 32.576C123.076 33.4373 121.591 33.868 119.846 33.868C118.894 33.868 117.953 33.7207 117.024 33.426C116.095 33.1313 115.335 32.7233 114.746 32.202L116.684 28.428C117.092 28.7907 117.557 29.074 118.078 29.278C118.622 29.482 119.155 29.584 119.676 29.584C120.401 29.584 120.991 29.4027 121.444 29.04C121.897 28.7 122.305 28.122 122.668 27.306L122.736 27.136L114.814 8.708H120.288L125.422 21.118L130.59 8.708H135.69ZM138.085 27.272C137.155 27.272 136.373 26.9547 135.739 26.32C135.104 25.6853 134.787 24.892 134.787 23.94C134.787 22.9653 135.104 22.1833 135.739 21.594C136.373 20.982 137.155 20.676 138.085 20.676C139.014 20.676 139.796 20.982 140.431 21.594C141.065 22.1833 141.383 22.9653 141.383 23.94C141.383 24.892 141.065 25.6853 140.431 26.32C139.796 26.9547 139.014 27.272 138.085 27.272ZM144.297 8.708H149.601V27H144.297V8.708ZM146.949 6.158C145.974 6.158 145.181 5.87467 144.569 5.308C143.957 4.74133 143.651 4.03867 143.651 3.2C143.651 2.36133 143.957 1.65867 144.569 1.092C145.181 0.525332 145.974 0.241998 146.949 0.241998C147.924 0.241998 148.717 0.513999 149.329 1.058C149.941 1.602 150.247 2.282 150.247 3.098C150.247 3.982 149.941 4.71867 149.329 5.308C148.717 5.87467 147.924 6.158 146.949 6.158ZM172.476 1.772V27H167.41V24.892C166.095 26.4787 164.191 27.272 161.698 27.272C159.975 27.272 158.411 26.8867 157.006 26.116C155.623 25.3453 154.535 24.246 153.742 22.818C152.948 21.39 152.552 19.7353 152.552 17.854C152.552 15.9727 152.948 14.318 153.742 12.89C154.535 11.462 155.623 10.3627 157.006 9.592C158.411 8.82133 159.975 8.436 161.698 8.436C164.032 8.436 165.857 9.17267 167.172 10.646V1.772H172.476ZM162.616 22.92C163.953 22.92 165.064 22.4667 165.948 21.56C166.832 20.6307 167.274 19.3953 167.274 17.854C167.274 16.3127 166.832 15.0887 165.948 14.182C165.064 13.2527 163.953 12.788 162.616 12.788C161.256 12.788 160.134 13.2527 159.25 14.182C158.366 15.0887 157.924 16.3127 157.924 17.854C157.924 19.3953 158.366 20.6307 159.25 21.56C160.134 22.4667 161.256 22.92 162.616 22.92Z" fill="#6D329D"/>
</svg>
